<svg xmlns="http://www.w3.org/2000/svg" width="72.34" height="82.667" viewBox="0 0 72.34 82.667">
  <path id="Icon_awesome-snowflake" data-name="Icon awesome-snowflake" d="M71.094,55.736l-5.457-3.148,4.2-1.13a2.5,2.5,0,0,0,1.76-3.052L70.949,46A2.5,2.5,0,0,0,67.9,44.24L56.466,47.308,46.148,41.334l10.3-5.958,11.431,3.068a2.5,2.5,0,0,0,3.052-1.76l.646-2.406a2.5,2.5,0,0,0-1.76-3.052l-4.2-1.13,5.457-3.148A2.5,2.5,0,0,0,72,23.541l-2.5-4.327a2.5,2.5,0,0,0-3.407-.92l-5.457,3.148,1.13-4.2A2.5,2.5,0,0,0,60,14.192L57.6,13.546a2.5,2.5,0,0,0-3.052,1.76L51.477,26.738l-10.14,5.845V20.069l8.67-8.67a2.592,2.592,0,0,0,0-3.649L48.183,5.926a2.592,2.592,0,0,0-3.649,0l-3.2,3.181V2.583A2.591,2.591,0,0,0,38.753,0H33.587A2.591,2.591,0,0,0,31,2.583V9.106L27.823,5.926a2.592,2.592,0,0,0-3.649,0L22.333,7.75a2.563,2.563,0,0,0,0,3.649L31,20.069V32.583l-10.14-5.845L17.8,15.306a2.5,2.5,0,0,0-3.052-1.76l-2.406.646a2.5,2.5,0,0,0-1.76,3.052l1.13,4.2L6.252,18.293a2.491,2.491,0,0,0-3.407.92l-2.5,4.311a2.491,2.491,0,0,0,.92,3.407L6.72,30.08l-4.2,1.13A2.5,2.5,0,0,0,.746,34.278l.646,2.406a2.5,2.5,0,0,0,3.052,1.76l11.431-3.068,10.3,5.958-10.3,5.958L4.443,44.224a2.5,2.5,0,0,0-3.052,1.76L.746,48.39a2.5,2.5,0,0,0,1.76,3.052l4.2,1.13L1.246,55.736a2.5,2.5,0,0,0-.92,3.407l2.5,4.327a2.5,2.5,0,0,0,3.407.92l5.457-3.148-1.13,4.2a2.5,2.5,0,0,0,1.76,3.052l2.406.646a2.5,2.5,0,0,0,3.052-1.76l3.068-11.431L30.987,50.1V62.614l-8.67,8.67a2.563,2.563,0,0,0,0,3.649l1.824,1.825a2.592,2.592,0,0,0,3.649,0l3.181-3.181v6.507a2.591,2.591,0,0,0,2.583,2.583h5.167A2.591,2.591,0,0,0,41.3,80.084V73.561l3.181,3.181a2.592,2.592,0,0,0,3.649,0l1.824-1.825a2.592,2.592,0,0,0,0-3.649L41.337,62.6V50.085l10.14,5.845,3.068,11.431a2.5,2.5,0,0,0,3.052,1.76L60,68.475a2.5,2.5,0,0,0,1.76-3.052l-1.13-4.2,5.457,3.148a2.491,2.491,0,0,0,3.407-.92L72,59.127a2.467,2.467,0,0,0-.9-3.391Z" transform="translate(0.002)"/>
</svg>
