<?xml version="1.0" encoding="UTF-8"?>
<svg xmlns="http://www.w3.org/2000/svg" width="15.217" height="16" viewBox="0 0 15.217 16">
  <path id="call" d="M20.448,8.988c-.152-.505-.3-.91-.809-.96l-.96-.051C17.668,7.926,16,9.443,16,11.97c.051,4.4,6.621,11.574,10.967,11.978,2.578.253,4.195-1.264,4.245-2.325v-.91c.051-.505-.354-.708-.859-.91-.96-.354-1.921-.809-2.881-1.162a1.153,1.153,0,0,0-1.011.253,7.319,7.319,0,0,0-.91.859c-.253.2-.505.3-.758.051a10.452,10.452,0,0,1-4.852-5.256.515.515,0,0,1,.152-.758c.354-.3.606-.556.91-.859a1.048,1.048,0,0,0,.354-.96C21.054,11.009,20.751,9.948,20.448,8.988Z" transform="translate(-16 -7.976)" fill="#ea2a2f" fill-rule="evenodd"></path>
</svg>
