<svg id="indoor_air-01" data-name="indoor air-01" xmlns="http://www.w3.org/2000/svg" width="79.968" height="80" viewBox="0 0 79.968 80">
  <path id="Path_232" data-name="Path 232" d="M63,22.227c.752-.3,1.458-.589,2.164-.879,1.249-.508,2.494-1.016,3.743-1.514a.335.335,0,0,0,.259-.361c-.01-3.139-.005-6.278-.005-9.416A9.286,9.286,0,0,0,67.49,4.537,8.8,8.8,0,0,0,61.563.84,11.13,11.13,0,0,0,59.725.693Q41.418.677,23.106.688a9.211,9.211,0,0,0-5.577,1.737,8.724,8.724,0,0,0-3.55,5.607,12.708,12.708,0,0,0-.2,2.24q-.023,7.512,0,15.023a.353.353,0,0,1-.295.4c-2.225.731-4.439,1.483-6.719,2.011a24.473,24.473,0,0,1-5.079.67c-.061,0-.117.01-.188.015v6.151a39.74,39.74,0,0,0,12.261-2.3,2.185,2.185,0,0,1,.02.234c0,1.732,0,3.469.005,5.2,0,.152-.03.239-.193.295A69.805,69.805,0,0,1,6.833,40c-1.163.259-2.352.416-3.535.589-.584.081-1.178.091-1.788.132v6.12a29.135,29.135,0,0,0,6.232-.681,48.861,48.861,0,0,0,6.029-1.7c.005.1.015.173.015.239q0,2.651.005,5.3a.253.253,0,0,1-.2.29c-2.133.7-4.256,1.427-6.44,1.95a23.643,23.643,0,0,1-5.4.747c-.076,0-.147.005-.239.01v6.161a31.563,31.563,0,0,0,6.227-.7,50.218,50.218,0,0,0,6.049-1.707V71.32A9.45,9.45,0,0,0,14.8,75.739a9.174,9.174,0,0,0,8.045,4.937q18.688.015,37.381-.005a8.71,8.71,0,0,0,6.09-2.458,8.939,8.939,0,0,0,2.763-5.434,11.9,11.9,0,0,0,.091-1.595q.008-7.588.005-15.176c0-.406,0-.411.386-.518,2.148-.594,4.292-1.209,6.445-1.773a21.278,21.278,0,0,1,5.252-.711,1.6,1.6,0,0,0,.208-.02v-6.13a.34.34,0,0,0-.1-.025c-1.046.071-2.093.1-3.134.234A60.213,60.213,0,0,0,67,50.08c-1.122.371-2.27.675-3.413.99-1.686.462-3.372.945-5.074,1.351a19.4,19.4,0,0,1-5.754.533,19.926,19.926,0,0,1-4.871-.945c-1.8-.574-3.6-1.163-5.379-1.8-.94-.335-1.839-.8-2.763-1.178a28.844,28.844,0,0,0-6.557-1.889,23.354,23.354,0,0,0-5.455-.259,22.845,22.845,0,0,0-4.556.874.272.272,0,0,0-.157.2c-.01,1.96-.005,3.926-.005,5.886a.692.692,0,0,0,.02.1l1.366-.35a19.559,19.559,0,0,1,5.8-.574,21.621,21.621,0,0,1,6.476,1.392c1.686.63,3.347,1.321,5,2.021a35.121,35.121,0,0,0,6.562,2.133,26.588,26.588,0,0,0,6.77.549,34.679,34.679,0,0,0,7.8-1.351c.056-.015.112-.025.188-.041.005.091.01.163.01.239,0,4.541.015,9.086-.01,13.627a2.8,2.8,0,0,1-2.712,2.905c-.244.02-.488.03-.736.03H23.253A3.551,3.551,0,0,1,21.176,74a2.859,2.859,0,0,1-1.224-2.275c-.01-.152-.005-.3-.005-.457q0-30.58-.005-61.16a3.559,3.559,0,0,1,.437-1.894,2.8,2.8,0,0,1,2.255-1.341,5.1,5.1,0,0,1,.559-.015q18.284,0,36.568-.005a3.259,3.259,0,0,1,2.24.7,2.743,2.743,0,0,1,.94,1.767,6.771,6.771,0,0,1,.051.909q.008,5.836,0,11.676C63,21.994,63,22.085,63,22.227Z" transform="translate(-1.5 -0.686)"/>
  <path id="Path_233" data-name="Path 233" d="M425,910.519v6.13c.543-.137,1.077-.274,1.6-.4a18.946,18.946,0,0,1,5.45-.528,21.748,21.748,0,0,1,6.6,1.4c1.732.65,3.433,1.371,5.145,2.082a35.389,35.389,0,0,0,6.425,2.077,26.994,26.994,0,0,0,6.973.533,37.291,37.291,0,0,0,11.265-2.529c2.128-.808,4.312-1.412,6.5-2.032,1.514-.432,3.042-.8,4.576-1.143a17.055,17.055,0,0,1,3.591-.4h.315v-6.181c-.559.025-1.107.036-1.651.076a44.6,44.6,0,0,0-10.981,2.58c-3.164,1.056-6.379,1.961-9.609,2.793a23.055,23.055,0,0,1-3.906.65,21.862,21.862,0,0,1-8.258-.99,53.138,53.138,0,0,1-5.942-2.321,31.659,31.659,0,0,0-7.654-2.418,23.526,23.526,0,0,0-5.6-.31,22.267,22.267,0,0,0-4.754.9A.25.25,0,0,0,425,910.519Z" transform="translate(-403.491 -888.008)"/>
  <path id="Path_234" data-name="Path 234" d="M424.8,674c.838-.193,1.641-.4,2.453-.564a18.75,18.75,0,0,1,4.332-.355,24.324,24.324,0,0,1,8.208,1.889c1.722.681,3.413,1.432,5.125,2.123a30.368,30.368,0,0,0,6.7,1.844,26.655,26.655,0,0,0,5.434.254,34.076,34.076,0,0,0,7.552-1.326c1.9-.538,3.753-1.229,5.607-1.925.853-.32,1.752-.528,2.636-.772,1.686-.467,3.367-.95,5.064-1.387a23.634,23.634,0,0,1,5.2-.716c.041,0,.081-.005.137-.01v-6.1c-.437,0-.884-.02-1.326.005a38.248,38.248,0,0,0-9.533,2.016c-1.458.467-2.905.98-4.373,1.417q-3.337.983-6.7,1.879a21.978,21.978,0,0,1-6.43.792,22.452,22.452,0,0,1-5.648-.935,53.613,53.613,0,0,1-6.465-2.5,32.505,32.505,0,0,0-6.572-2.179,24.854,24.854,0,0,0-6.191-.513,21,21,0,0,0-5.038.9.269.269,0,0,0-.163.193C424.8,670.01,424.8,672,424.8,674Z" transform="translate(-403.301 -633.065)"/>
</svg>
