<svg xmlns="http://www.w3.org/2000/svg" width="167.694" height="107.9" viewBox="0 0 167.694 107.9">
  <path id="Path_141" data-name="Path 141" d="M5,42.085c1.46-12.037,9.374-22.654,19.371-29.145,11.821-7.678,26.467-9.424,40.161-6.9C79.008,8.7,92.226,15.747,103.7,24.813a193.234,193.234,0,0,1,30.937,31.434c8.956,11.256,16.736,23.706,21.91,37.168q.991,2.575,1.856,5.2a2.568,2.568,0,0,0,2.406,1.831,2.5,2.5,0,0,0,2.406-1.831q2.012-13.894,4.026-27.787l-4.9-.663q.644,17.6.159,35.217l3.754-2.154a67.062,67.062,0,0,0-39.3-10.615c-3.2.149-3.215,5.139,0,4.99a62.415,62.415,0,0,1,36.777,9.933,2.517,2.517,0,0,0,3.754-2.153q.485-17.608-.159-35.217a2.5,2.5,0,0,0-2.163-2.451,2.463,2.463,0,0,0-2.737,1.787L158.4,97.286h4.812A140.977,140.977,0,0,0,141.556,57.1a201.532,201.532,0,0,0-31.513-33.528C98.132,13.642,84.5,5.48,69.273,1.938,54.525-1.494,38.436-.65,24.987,6.755,13.465,13.1,4.01,24.045.894,36.98a44.883,44.883,0,0,0-.881,5.105A2.509,2.509,0,0,0,2.508,44.58,2.556,2.556,0,0,0,5,42.085Z" transform="translate(0)" fill="#ffd857"/>
</svg>
